<svg xmlns="http://www.w3.org/2000/svg" enable-background="new 0 0 32 32" viewBox="0 0 32 32" id="trello"><path fill="#f5e6fe" d="m26 32h-20c-3.314 0-6-2.686-6-6v-20c0-3.314 2.686-6 6-6h20c3.314 0 6 2.686 6 6v20c0 3.314-2.686 6-6 6z"></path><path fill="#be63f9" d="m22 8h-12c-1.105 0-2 .895-2 2v12c0 1.104.895 2 2 2h12c1.104 0 2-.896 2-2v-12c0-1.105-.896-2-2-2zm-7.04 12.12c0 .53-.43.96-.96.96h-2.96c-.53 0-.96-.431-.96-.96v-9.08c0-.53.43-.96.96-.96h2.96c.53 0 .96.43.96.96zm6.96-4c0 .529-.43.96-.96.96h-2.96c-.53 0-.96-.431-.96-.96v-5.08c0-.53.431-.96.96-.96h2.96c.53 0 .96.43.96.96z"></path></svg>